{
	"asset":{
		"copyright":"Markyy",
		"generator":"Khronos glTF Blender I/O v3.6.27",
		"version":"2.0"
	},
	"extensionsUsed":[
		"KHR_materials_specular",
		"KHR_materials_ior"
	],
	"scene":0,
	"scenes":[
		{
			"name":"Scene",
			"nodes":[
				0
			]
		}
	],
	"nodes":[
		{
			"mesh":0,
			"name":"TestStage-col",
			"rotation":[
				0.70710688829422,
				0,
				0,
				0.7071066498756409
			]
		}
	],
	"materials":[
		{
			"doubleSided":true,
			"extensions":{
				"KHR_materials_specular":{
					"specularColorFactor":[
						0,
						0,
						0
					]
				},
				"KHR_materials_ior":{
					"ior":1.4500000476837158
				}
			},
			"name":"10 - Default",
			"pbrMetallicRoughness":{
				"baseColorTexture":{
					"index":0
				},
				"metallicFactor":0
			}
		}
	],
	"meshes":[
		{
			"name":"Mesh1",
			"primitives":[
				{
					"attributes":{
						"POSITION":0,
						"NORMAL":1,
						"TEXCOORD_0":2
					},
					"indices":3,
					"material":0
				}
			]
		}
	],
	"textures":[
		{
			"sampler":0,
			"source":0
		}
	],
	"images":[
		{
			"mimeType":"image/png",
			"name":"Diffuse",
			"uri":"Diffuse.png"
		}
	],
	"accessors":[
		{
			"bufferView":0,
			"componentType":5126,
			"count":20101,
			"max":[
				1382.231201171875,
				1972.2943115234375,
				937.5271606445312
			],
			"min":[
				-2026.1851806640625,
				-881.5270385742188,
				-796.64599609375
			],
			"type":"VEC3"
		},
		{
			"bufferView":1,
			"componentType":5126,
			"count":20101,
			"type":"VEC3"
		},
		{
			"bufferView":2,
			"componentType":5126,
			"count":20101,
			"type":"VEC2"
		},
		{
			"bufferView":3,
			"componentType":5123,
			"count":85221,
			"type":"SCALAR"
		}
	],
	"bufferViews":[
		{
			"buffer":0,
			"byteLength":241212,
			"byteOffset":0,
			"target":34962
		},
		{
			"buffer":0,
			"byteLength":241212,
			"byteOffset":241212,
			"target":34962
		},
		{
			"buffer":0,
			"byteLength":160808,
			"byteOffset":482424,
			"target":34962
		},
		{
			"buffer":0,
			"byteLength":170442,
			"byteOffset":643232,
			"target":34963
		}
	],
	"samplers":[
		{
			"magFilter":9729,
			"minFilter":9987
		}
	],
	"buffers":[
		{
			"byteLength":813676,
			"uri":"Stage.bin"
		}
	]
}
