{
	"asset":{
		"generator":"Khronos glTF Blender I/O v3.6.27",
		"version":"2.0"
	},
	"scene":0,
	"scenes":[
		{
			"name":"Scene",
			"nodes":[
				3
			]
		}
	],
	"nodes":[
		{
			"name":"spring",
			"translation":[
				0,
				-7.946630020683187e-09,
				-7.946628244326348e-09
			]
		},
		{
			"children":[
				0
			],
			"name":"root",
			"rotation":[
				-0.7071067690849304,
				0,
				0,
				0.7071067690849304
			],
			"translation":[
				0,
				0.5,
				0.4999999701976776
			]
		},
		{
			"mesh":0,
			"name":"Mesh1",
			"skin":0
		},
		{
			"children":[
				2,
				1
			],
			"name":"Armature",
			"rotation":[
				0.7071068286895752,
				0,
				0,
				0.7071068286895752
			]
		}
	],
	"animations":[
		{
			"channels":[
				{
					"sampler":0,
					"target":{
						"node":1,
						"path":"translation"
					}
				},
				{
					"sampler":1,
					"target":{
						"node":1,
						"path":"rotation"
					}
				},
				{
					"sampler":2,
					"target":{
						"node":1,
						"path":"scale"
					}
				},
				{
					"sampler":3,
					"target":{
						"node":0,
						"path":"translation"
					}
				},
				{
					"sampler":4,
					"target":{
						"node":0,
						"path":"rotation"
					}
				},
				{
					"sampler":5,
					"target":{
						"node":0,
						"path":"scale"
					}
				}
			],
			"name":"SpringBounce",
			"samplers":[
				{
					"input":19,
					"interpolation":"STEP",
					"output":20
				},
				{
					"input":19,
					"interpolation":"STEP",
					"output":21
				},
				{
					"input":19,
					"interpolation":"STEP",
					"output":22
				},
				{
					"input":19,
					"interpolation":"STEP",
					"output":23
				},
				{
					"input":19,
					"interpolation":"STEP",
					"output":24
				},
				{
					"input":25,
					"interpolation":"LINEAR",
					"output":26
				}
			]
		}
	],
	"materials":[
		{
			"doubleSided":true,
			"name":"springa.001",
			"pbrMetallicRoughness":{
				"baseColorTexture":{
					"index":0
				},
				"metallicFactor":0,
				"roughnessFactor":0.5
			}
		},
		{
			"doubleSided":true,
			"name":"springb.001",
			"pbrMetallicRoughness":{
				"baseColorTexture":{
					"index":1
				},
				"metallicFactor":0,
				"roughnessFactor":0.5
			}
		},
		{
			"doubleSided":true,
			"name":"springc.001",
			"pbrMetallicRoughness":{
				"baseColorTexture":{
					"index":2
				},
				"metallicFactor":0,
				"roughnessFactor":0.5
			}
		}
	],
	"meshes":[
		{
			"name":"Mesh1.001",
			"primitives":[
				{
					"attributes":{
						"POSITION":0,
						"NORMAL":1,
						"TEXCOORD_0":2,
						"JOINTS_0":3,
						"WEIGHTS_0":4
					},
					"indices":5,
					"material":0
				},
				{
					"attributes":{
						"POSITION":6,
						"NORMAL":7,
						"TEXCOORD_0":8,
						"JOINTS_0":9,
						"WEIGHTS_0":10
					},
					"indices":11,
					"material":1
				},
				{
					"attributes":{
						"POSITION":12,
						"NORMAL":13,
						"TEXCOORD_0":14,
						"JOINTS_0":15,
						"WEIGHTS_0":16
					},
					"indices":17,
					"material":2
				}
			]
		}
	],
	"textures":[
		{
			"sampler":0,
			"source":0
		},
		{
			"sampler":0,
			"source":1
		},
		{
			"sampler":0,
			"source":2
		}
	],
	"images":[
		{
			"bufferView":6,
			"mimeType":"image/png",
			"name":"springa"
		},
		{
			"bufferView":13,
			"mimeType":"image/png",
			"name":"springb"
		},
		{
			"bufferView":20,
			"mimeType":"image/png",
			"name":"springc"
		}
	],
	"skins":[
		{
			"inverseBindMatrices":18,
			"joints":[
				1,
				0
			],
			"name":"Armature"
		}
	],
	"accessors":[
		{
			"bufferView":0,
			"componentType":5126,
			"count":81,
			"max":[
				1.5755759477615356,
				2.8039019107818604,
				1.5755760669708252
			],
			"min":[
				-1.5755759477615356,
				2.484692096710205,
				-1.575575828552246
			],
			"type":"VEC3"
		},
		{
			"bufferView":1,
			"componentType":5126,
			"count":81,
			"type":"VEC3"
		},
		{
			"bufferView":2,
			"componentType":5126,
			"count":81,
			"type":"VEC2"
		},
		{
			"bufferView":3,
			"componentType":5121,
			"count":81,
			"type":"VEC4"
		},
		{
			"bufferView":4,
			"componentType":5126,
			"count":81,
			"type":"VEC4"
		},
		{
			"bufferView":5,
			"componentType":5123,
			"count":420,
			"type":"SCALAR"
		},
		{
			"bufferView":7,
			"componentType":5126,
			"count":21,
			"max":[
				2.393420934677124,
				0.8383620977401733,
				2.393420934677124
			],
			"min":[
				-2.393420934677124,
				0.6999689936637878,
				-2.393420934677124
			],
			"type":"VEC3"
		},
		{
			"bufferView":8,
			"componentType":5126,
			"count":21,
			"type":"VEC3"
		},
		{
			"bufferView":9,
			"componentType":5126,
			"count":21,
			"type":"VEC2"
		},
		{
			"bufferView":10,
			"componentType":5121,
			"count":21,
			"type":"VEC4"
		},
		{
			"bufferView":11,
			"componentType":5126,
			"count":21,
			"type":"VEC4"
		},
		{
			"bufferView":12,
			"componentType":5123,
			"count":60,
			"type":"SCALAR"
		},
		{
			"bufferView":14,
			"componentType":5126,
			"count":678,
			"max":[
				2.741381883621216,
				2.6497349739074707,
				2.741381883621216
			],
			"min":[
				-2.741381883621216,
				-1.471290946006775,
				-2.741381883621216
			],
			"type":"VEC3"
		},
		{
			"bufferView":15,
			"componentType":5126,
			"count":678,
			"type":"VEC3"
		},
		{
			"bufferView":16,
			"componentType":5126,
			"count":678,
			"type":"VEC2"
		},
		{
			"bufferView":17,
			"componentType":5121,
			"count":678,
			"type":"VEC4"
		},
		{
			"bufferView":18,
			"componentType":5126,
			"count":678,
			"type":"VEC4"
		},
		{
			"bufferView":19,
			"componentType":5123,
			"count":3336,
			"type":"SCALAR"
		},
		{
			"bufferView":21,
			"componentType":5126,
			"count":2,
			"type":"MAT4"
		},
		{
			"bufferView":22,
			"componentType":5126,
			"count":2,
			"max":[
				0.9666666666666667
			],
			"min":[
				0
			],
			"type":"SCALAR"
		},
		{
			"bufferView":23,
			"componentType":5126,
			"count":2,
			"type":"VEC3"
		},
		{
			"bufferView":24,
			"componentType":5126,
			"count":2,
			"type":"VEC4"
		},
		{
			"bufferView":25,
			"componentType":5126,
			"count":2,
			"type":"VEC3"
		},
		{
			"bufferView":26,
			"componentType":5126,
			"count":2,
			"type":"VEC3"
		},
		{
			"bufferView":27,
			"componentType":5126,
			"count":2,
			"type":"VEC4"
		},
		{
			"bufferView":28,
			"componentType":5126,
			"count":30,
			"max":[
				0.9666666666666667
			],
			"min":[
				0
			],
			"type":"SCALAR"
		},
		{
			"bufferView":29,
			"componentType":5126,
			"count":30,
			"type":"VEC3"
		}
	],
	"bufferViews":[
		{
			"buffer":0,
			"byteLength":972,
			"byteOffset":0,
			"target":34962
		},
		{
			"buffer":0,
			"byteLength":972,
			"byteOffset":972,
			"target":34962
		},
		{
			"buffer":0,
			"byteLength":648,
			"byteOffset":1944,
			"target":34962
		},
		{
			"buffer":0,
			"byteLength":324,
			"byteOffset":2592,
			"target":34962
		},
		{
			"buffer":0,
			"byteLength":1296,
			"byteOffset":2916,
			"target":34962
		},
		{
			"buffer":0,
			"byteLength":840,
			"byteOffset":4212,
			"target":34963
		},
		{
			"buffer":0,
			"byteLength":51467,
			"byteOffset":5052
		},
		{
			"buffer":0,
			"byteLength":252,
			"byteOffset":56520,
			"target":34962
		},
		{
			"buffer":0,
			"byteLength":252,
			"byteOffset":56772,
			"target":34962
		},
		{
			"buffer":0,
			"byteLength":168,
			"byteOffset":57024,
			"target":34962
		},
		{
			"buffer":0,
			"byteLength":84,
			"byteOffset":57192,
			"target":34962
		},
		{
			"buffer":0,
			"byteLength":336,
			"byteOffset":57276,
			"target":34962
		},
		{
			"buffer":0,
			"byteLength":120,
			"byteOffset":57612,
			"target":34963
		},
		{
			"buffer":0,
			"byteLength":66204,
			"byteOffset":57732
		},
		{
			"buffer":0,
			"byteLength":8136,
			"byteOffset":123936,
			"target":34962
		},
		{
			"buffer":0,
			"byteLength":8136,
			"byteOffset":132072,
			"target":34962
		},
		{
			"buffer":0,
			"byteLength":5424,
			"byteOffset":140208,
			"target":34962
		},
		{
			"buffer":0,
			"byteLength":2712,
			"byteOffset":145632,
			"target":34962
		},
		{
			"buffer":0,
			"byteLength":10848,
			"byteOffset":148344,
			"target":34962
		},
		{
			"buffer":0,
			"byteLength":6672,
			"byteOffset":159192,
			"target":34963
		},
		{
			"buffer":0,
			"byteLength":34712,
			"byteOffset":165864
		},
		{
			"buffer":0,
			"byteLength":128,
			"byteOffset":200576
		},
		{
			"buffer":0,
			"byteLength":8,
			"byteOffset":200704
		},
		{
			"buffer":0,
			"byteLength":24,
			"byteOffset":200712
		},
		{
			"buffer":0,
			"byteLength":32,
			"byteOffset":200736
		},
		{
			"buffer":0,
			"byteLength":24,
			"byteOffset":200768
		},
		{
			"buffer":0,
			"byteLength":24,
			"byteOffset":200792
		},
		{
			"buffer":0,
			"byteLength":32,
			"byteOffset":200816
		},
		{
			"buffer":0,
			"byteLength":120,
			"byteOffset":200848
		},
		{
			"buffer":0,
			"byteLength":360,
			"byteOffset":200968
		}
	],
	"samplers":[
		{
			"magFilter":9729,
			"minFilter":9987
		}
	],
	"buffers":[
		{
			"byteLength":201328,
			"uri":"data:application/octet-stream;base64,"
		}
	]
}
