{
	"asset":{
		"generator":"Khronos glTF Blender I/O v3.6.27",
		"version":"2.0"
	},
	"extensionsUsed":[
		"KHR_materials_specular",
		"KHR_materials_ior"
	],
	"scene":0,
	"scenes":[
		{
			"name":"Scene",
			"nodes":[
				0,
				4
			]
		}
	],
	"nodes":[
		{
			"mesh":0,
			"name":"Mesh1",
			"rotation":[
				0.70710688829422,
				0,
				0,
				0.7071066498756409
			]
		},
		{
			"name":"Scene_Root2"
		},
		{
			"children":[
				1
			],
			"name":"Scene_Root1"
		},
		{
			"children":[
				2
			],
			"name":"Scene_Root"
		},
		{
			"children":[
				3
			],
			"name":"Armature"
		}
	],
	"materials":[
		{
			"doubleSided":true,
			"name":"rdmobj02_rdmobj02_005Mat",
			"pbrMetallicRoughness":{
				"baseColorTexture":{
					"index":0
				},
				"metallicFactor":0,
				"roughnessFactor":0.5
			}
		},
		{
			"doubleSided":true,
			"name":"rdmobj00_rdmobj00_004Mat",
			"pbrMetallicRoughness":{
				"baseColorTexture":{
					"index":1
				},
				"metallicFactor":0.4803149700164795
			}
		},
		{
			"doubleSided":true,
			"extensions":{
				"KHR_materials_specular":{
					"specularColorTexture":{
						"index":2
					}
				},
				"KHR_materials_ior":{
					"ior":1.4500000476837158
				}
			},
			"name":"rED",
			"pbrMetallicRoughness":{
				"baseColorTexture":{
					"index":3
				},
				"roughnessFactor":0.24015748500823975
			}
		},
		{
			"doubleSided":true,
			"name":"rED1",
			"pbrMetallicRoughness":{
				"baseColorTexture":{
					"index":4
				},
				"roughnessFactor":0.5
			}
		},
		{
			"doubleSided":true,
			"name":"cmn_metal_ms_dashbelt_dif",
			"pbrMetallicRoughness":{
				"baseColorTexture":{
					"index":5
				},
				"metallicFactor":0.8188976645469666,
				"roughnessFactor":0.4448818862438202
			}
		}
	],
	"meshes":[
		{
			"name":"Mesh1",
			"primitives":[
				{
					"attributes":{
						"POSITION":0,
						"NORMAL":1,
						"TEXCOORD_0":2
					},
					"indices":3,
					"material":0
				},
				{
					"attributes":{
						"POSITION":4,
						"NORMAL":5,
						"TEXCOORD_0":6
					},
					"indices":7,
					"material":1
				},
				{
					"attributes":{
						"POSITION":8,
						"NORMAL":9,
						"TEXCOORD_0":10
					},
					"indices":11,
					"material":2
				},
				{
					"attributes":{
						"POSITION":12,
						"NORMAL":13,
						"TEXCOORD_0":14
					},
					"indices":15,
					"material":3
				},
				{
					"attributes":{
						"POSITION":16,
						"NORMAL":17,
						"TEXCOORD_0":18
					},
					"indices":19,
					"material":4
				}
			]
		}
	],
	"textures":[
		{
			"sampler":0,
			"source":0
		},
		{
			"sampler":0,
			"source":1
		},
		{
			"sampler":0,
			"source":2
		},
		{
			"sampler":0,
			"source":1
		},
		{
			"sampler":0,
			"source":1
		},
		{
			"sampler":0,
			"source":3
		}
	],
	"images":[
		{
			"mimeType":"image/png",
			"name":"Row",
			"uri":"Row.png"
		},
		{
			"mimeType":"image/png",
			"name":"DashMetal",
			"uri":"DashMetal.png"
		},
		{
			"mimeType":"image/png",
			"name":"Image",
			"uri":"Image.png"
		},
		{
			"mimeType":"image/png",
			"name":"Pad",
			"uri":"Pad.png"
		}
	],
	"skins":[
		{
			"inverseBindMatrices":20,
			"joints":[
				3,
				2,
				1
			],
			"name":"Armature"
		}
	],
	"accessors":[
		{
			"bufferView":0,
			"componentType":5126,
			"count":8,
			"max":[
				2.316967010498047,
				0.4770689904689789,
				1.3467719554901123
			],
			"min":[
				-2.316967010498047,
				0.24262000620365143,
				0.17685100436210632
			],
			"type":"VEC3"
		},
		{
			"bufferView":1,
			"componentType":5126,
			"count":8,
			"type":"VEC3"
		},
		{
			"bufferView":2,
			"componentType":5126,
			"count":8,
			"type":"VEC2"
		},
		{
			"bufferView":3,
			"componentType":5123,
			"count":12,
			"type":"SCALAR"
		},
		{
			"bufferView":4,
			"componentType":5126,
			"count":197,
			"max":[
				2.937490940093994,
				1.7118799686431885,
				2.7917590141296387
			],
			"min":[
				-2.937490940093994,
				0.20988699793815613,
				-5.151759147644043
			],
			"type":"VEC3"
		},
		{
			"bufferView":5,
			"componentType":5126,
			"count":197,
			"type":"VEC3"
		},
		{
			"bufferView":6,
			"componentType":5126,
			"count":197,
			"type":"VEC2"
		},
		{
			"bufferView":7,
			"componentType":5123,
			"count":507,
			"type":"SCALAR"
		},
		{
			"bufferView":8,
			"componentType":5126,
			"count":89,
			"max":[
				2.3649768829345703,
				0.7190160155296326,
				2.1077489852905273
			],
			"min":[
				-2.3649768829345703,
				0.025481000542640686,
				-4.401111125946045
			],
			"type":"VEC3"
		},
		{
			"bufferView":9,
			"componentType":5126,
			"count":89,
			"type":"VEC3"
		},
		{
			"bufferView":10,
			"componentType":5126,
			"count":89,
			"type":"VEC2"
		},
		{
			"bufferView":11,
			"componentType":5123,
			"count":219,
			"type":"SCALAR"
		},
		{
			"bufferView":12,
			"componentType":5126,
			"count":12,
			"max":[
				1.600142002105713,
				1.6721500158309937,
				2.2584431171417236
			],
			"min":[
				-1.600142002105713,
				0.5264729857444763,
				0.47196999192237854
			],
			"type":"VEC3"
		},
		{
			"bufferView":13,
			"componentType":5126,
			"count":12,
			"type":"VEC3"
		},
		{
			"bufferView":14,
			"componentType":5126,
			"count":12,
			"type":"VEC2"
		},
		{
			"bufferView":15,
			"componentType":5123,
			"count":18,
			"type":"SCALAR"
		},
		{
			"bufferView":16,
			"componentType":5126,
			"count":12,
			"max":[
				1.421368956565857,
				0.7970679998397827,
				0.4719710052013397
			],
			"min":[
				-1.421370029449463,
				0.516759991645813,
				-4.589327812194824
			],
			"type":"VEC3"
		},
		{
			"bufferView":17,
			"componentType":5126,
			"count":12,
			"type":"VEC3"
		},
		{
			"bufferView":18,
			"componentType":5126,
			"count":12,
			"type":"VEC2"
		},
		{
			"bufferView":19,
			"componentType":5123,
			"count":24,
			"type":"SCALAR"
		},
		{
			"bufferView":20,
			"componentType":5126,
			"count":3,
			"type":"MAT4"
		}
	],
	"bufferViews":[
		{
			"buffer":0,
			"byteLength":96,
			"byteOffset":0,
			"target":34962
		},
		{
			"buffer":0,
			"byteLength":96,
			"byteOffset":96,
			"target":34962
		},
		{
			"buffer":0,
			"byteLength":64,
			"byteOffset":192,
			"target":34962
		},
		{
			"buffer":0,
			"byteLength":24,
			"byteOffset":256,
			"target":34963
		},
		{
			"buffer":0,
			"byteLength":2364,
			"byteOffset":280,
			"target":34962
		},
		{
			"buffer":0,
			"byteLength":2364,
			"byteOffset":2644,
			"target":34962
		},
		{
			"buffer":0,
			"byteLength":1576,
			"byteOffset":5008,
			"target":34962
		},
		{
			"buffer":0,
			"byteLength":1014,
			"byteOffset":6584,
			"target":34963
		},
		{
			"buffer":0,
			"byteLength":1068,
			"byteOffset":7600,
			"target":34962
		},
		{
			"buffer":0,
			"byteLength":1068,
			"byteOffset":8668,
			"target":34962
		},
		{
			"buffer":0,
			"byteLength":712,
			"byteOffset":9736,
			"target":34962
		},
		{
			"buffer":0,
			"byteLength":438,
			"byteOffset":10448,
			"target":34963
		},
		{
			"buffer":0,
			"byteLength":144,
			"byteOffset":10888,
			"target":34962
		},
		{
			"buffer":0,
			"byteLength":144,
			"byteOffset":11032,
			"target":34962
		},
		{
			"buffer":0,
			"byteLength":96,
			"byteOffset":11176,
			"target":34962
		},
		{
			"buffer":0,
			"byteLength":36,
			"byteOffset":11272,
			"target":34963
		},
		{
			"buffer":0,
			"byteLength":144,
			"byteOffset":11308,
			"target":34962
		},
		{
			"buffer":0,
			"byteLength":144,
			"byteOffset":11452,
			"target":34962
		},
		{
			"buffer":0,
			"byteLength":96,
			"byteOffset":11596,
			"target":34962
		},
		{
			"buffer":0,
			"byteLength":48,
			"byteOffset":11692,
			"target":34963
		},
		{
			"buffer":0,
			"byteLength":192,
			"byteOffset":11740
		}
	],
	"samplers":[
		{
			"magFilter":9729,
			"minFilter":9987
		}
	],
	"buffers":[
		{
			"byteLength":11932,
			"uri":"pad.bin"
		}
	]
}
