{
	"asset":{
		"generator":"Khronos glTF Blender I/O v3.6.27",
		"version":"2.0"
	},
	"extensionsUsed":[
		"KHR_materials_specular",
		"KHR_materials_ior"
	],
	"scene":0,
	"scenes":[
		{
			"name":"Scene",
			"nodes":[
				2
			]
		}
	],
	"nodes":[
		{
			"name":"root"
		},
		{
			"mesh":0,
			"name":"Ring",
			"skin":0
		},
		{
			"children":[
				1,
				0
			],
			"name":"Armature"
		}
	],
	"animations":[
		{
			"channels":[
				{
					"sampler":0,
					"target":{
						"node":0,
						"path":"translation"
					}
				},
				{
					"sampler":1,
					"target":{
						"node":0,
						"path":"rotation"
					}
				},
				{
					"sampler":2,
					"target":{
						"node":0,
						"path":"scale"
					}
				}
			],
			"name":"RingSpin",
			"samplers":[
				{
					"input":7,
					"interpolation":"STEP",
					"output":8
				},
				{
					"input":9,
					"interpolation":"LINEAR",
					"output":10
				},
				{
					"input":7,
					"interpolation":"STEP",
					"output":11
				}
			]
		},
		{
			"channels":[
				{
					"sampler":0,
					"target":{
						"node":0,
						"path":"translation"
					}
				},
				{
					"sampler":1,
					"target":{
						"node":0,
						"path":"rotation"
					}
				},
				{
					"sampler":2,
					"target":{
						"node":0,
						"path":"scale"
					}
				}
			],
			"name":"RingSpin_Armature.001",
			"samplers":[
				{
					"input":7,
					"interpolation":"STEP",
					"output":12
				},
				{
					"input":9,
					"interpolation":"LINEAR",
					"output":13
				},
				{
					"input":7,
					"interpolation":"STEP",
					"output":14
				}
			]
		}
	],
	"materials":[
		{
			"doubleSided":true,
			"extensions":{
				"KHR_materials_specular":{
					"specularColorFactor":[
						4.099271951996675,
						1.9026267147373257,
						0
					]
				},
				"KHR_materials_ior":{
					"ior":1.4500000476837158
				}
			},
			"name":"Ring",
			"pbrMetallicRoughness":{
				"baseColorFactor":[
					0.7529410123825073,
					0.34946832060813904,
					0,
					1
				],
				"roughnessFactor":0.25196850299835205
			}
		}
	],
	"meshes":[
		{
			"name":"Ring",
			"primitives":[
				{
					"attributes":{
						"POSITION":0,
						"NORMAL":1,
						"TEXCOORD_0":2,
						"JOINTS_0":3,
						"WEIGHTS_0":4
					},
					"indices":5,
					"material":0
				}
			]
		}
	],
	"skins":[
		{
			"inverseBindMatrices":6,
			"joints":[
				0
			],
			"name":"Armature"
		}
	],
	"accessors":[
		{
			"bufferView":0,
			"componentType":5126,
			"count":210,
			"max":[
				3.5820798873901367,
				3.891540050506592,
				0.48055675625801086
			],
			"min":[
				-3.5865399837493896,
				-3.2770800590515137,
				-0.4805532693862915
			],
			"type":"VEC3"
		},
		{
			"bufferView":1,
			"componentType":5126,
			"count":210,
			"type":"VEC3"
		},
		{
			"bufferView":2,
			"componentType":5126,
			"count":210,
			"type":"VEC2"
		},
		{
			"bufferView":3,
			"componentType":5121,
			"count":210,
			"type":"VEC4"
		},
		{
			"bufferView":4,
			"componentType":5126,
			"count":210,
			"type":"VEC4"
		},
		{
			"bufferView":5,
			"componentType":5123,
			"count":1200,
			"type":"SCALAR"
		},
		{
			"bufferView":6,
			"componentType":5126,
			"count":1,
			"type":"MAT4"
		},
		{
			"bufferView":7,
			"componentType":5126,
			"count":2,
			"max":[
				2.4583333333333335
			],
			"min":[
				0
			],
			"type":"SCALAR"
		},
		{
			"bufferView":8,
			"componentType":5126,
			"count":2,
			"type":"VEC3"
		},
		{
			"bufferView":9,
			"componentType":5126,
			"count":60,
			"max":[
				2.4583333333333335
			],
			"min":[
				0
			],
			"type":"SCALAR"
		},
		{
			"bufferView":10,
			"componentType":5126,
			"count":60,
			"type":"VEC4"
		},
		{
			"bufferView":11,
			"componentType":5126,
			"count":2,
			"type":"VEC3"
		},
		{
			"bufferView":12,
			"componentType":5126,
			"count":2,
			"type":"VEC3"
		},
		{
			"bufferView":13,
			"componentType":5126,
			"count":60,
			"type":"VEC4"
		},
		{
			"bufferView":14,
			"componentType":5126,
			"count":2,
			"type":"VEC3"
		}
	],
	"bufferViews":[
		{
			"buffer":0,
			"byteLength":2520,
			"byteOffset":0,
			"target":34962
		},
		{
			"buffer":0,
			"byteLength":2520,
			"byteOffset":2520,
			"target":34962
		},
		{
			"buffer":0,
			"byteLength":1680,
			"byteOffset":5040,
			"target":34962
		},
		{
			"buffer":0,
			"byteLength":840,
			"byteOffset":6720,
			"target":34962
		},
		{
			"buffer":0,
			"byteLength":3360,
			"byteOffset":7560,
			"target":34962
		},
		{
			"buffer":0,
			"byteLength":2400,
			"byteOffset":10920,
			"target":34963
		},
		{
			"buffer":0,
			"byteLength":64,
			"byteOffset":13320
		},
		{
			"buffer":0,
			"byteLength":8,
			"byteOffset":13384
		},
		{
			"buffer":0,
			"byteLength":24,
			"byteOffset":13392
		},
		{
			"buffer":0,
			"byteLength":240,
			"byteOffset":13416
		},
		{
			"buffer":0,
			"byteLength":960,
			"byteOffset":13656
		},
		{
			"buffer":0,
			"byteLength":24,
			"byteOffset":14616
		},
		{
			"buffer":0,
			"byteLength":24,
			"byteOffset":14640
		},
		{
			"buffer":0,
			"byteLength":960,
			"byteOffset":14664
		},
		{
			"buffer":0,
			"byteLength":24,
			"byteOffset":15624
		}
	],
	"buffers":[
		{
			"byteLength":15648,
			"uri":"Ring.bin"
		}
	]
}
